<?xml version="1.0" ?><svg viewBox="0 0 58.45 51.01" xmlns="http://www.w3.org/2000/svg"><defs><style>.cls-1{fill:#4d4d4d;}</style></defs><title/><g data-name="Layer 2" id="Layer_2"><g id="icon"><path class="cls-1" d="M18.16,36.37l0-.11a.59.59,0,0,0-.67-.53.71.71,0,0,0-.58.2c-1.12,1-3.11,2.53-3.16,4.22a2.2,2.2,0,0,0,2.37,2.48c3-.29,2.42-4,2.07-6.15A.64.64,0,0,0,18.16,36.37ZM16.75,40.7c-.2.32-.88.65-1.24.39s-.23-1.09,0-1.45A6.39,6.39,0,0,1,16.83,38c0,.24,0,.48,0,.71A3.91,3.91,0,0,1,16.75,40.7Z"/><path class="cls-1" d="M12.09,44.74l0-.12a.59.59,0,0,0-.67-.53.71.71,0,0,0-.58.2c-1.12,1-3.11,2.53-3.16,4.22A2.2,2.2,0,0,0,10,51c3-.29,2.42-4,2.07-6.15A.64.64,0,0,0,12.09,44.74Zm-1.41,4.32c-.2.32-.88.65-1.24.39s-.23-1.09,0-1.45a6.4,6.4,0,0,1,1.37-1.64c0,.24,0,.48,0,.71A3.91,3.91,0,0,1,10.68,49.06Z"/><path class="cls-1" d="M9.93,36.48a.65.65,0,0,0,0-.11l0-.11a.59.59,0,0,0-.67-.53.71.71,0,0,0-.58.2c-1.12,1-3.11,2.53-3.16,4.22a2.2,2.2,0,0,0,2.37,2.48C10.83,42.34,10.27,38.63,9.93,36.48ZM7.26,41.08c-.44-.32-.23-1.09,0-1.45A6.39,6.39,0,0,1,8.58,38c0,.24,0,.48,0,.71a3.91,3.91,0,0,1-.12,2C8.3,41,7.62,41.34,7.26,41.08Z"/><path class="cls-1" d="M51,36.37l0-.11a.59.59,0,0,0-.67-.53.71.71,0,0,0-.58.2c-1.12,1-3.11,2.53-3.16,4.22a2.2,2.2,0,0,0,2.37,2.48c3-.29,2.42-4,2.07-6.15A.65.65,0,0,0,51,36.37ZM49.54,40.7c-.2.32-.88.65-1.24.39s-.23-1.09,0-1.45A6.39,6.39,0,0,1,49.62,38c0,.24,0,.48,0,.71A3.91,3.91,0,0,1,49.54,40.7Z"/><path class="cls-1" d="M44.89,44.74l0-.12a.59.59,0,0,0-.67-.53.71.71,0,0,0-.58.2c-1.12,1-3.11,2.53-3.16,4.22A2.2,2.2,0,0,0,42.83,51c3-.29,2.42-4,2.07-6.15A.65.65,0,0,0,44.89,44.74Zm-1.41,4.32c-.2.32-.88.65-1.24.39s-.23-1.09,0-1.45a6.39,6.39,0,0,1,1.37-1.64c0,.24,0,.48,0,.71A3.91,3.91,0,0,1,43.48,49.06Z"/><path class="cls-1" d="M42.72,36.48a.62.62,0,0,0,0-.11l0-.11a.59.59,0,0,0-.67-.53.71.71,0,0,0-.58.2c-1.12,1-3.11,2.53-3.16,4.22a2.2,2.2,0,0,0,2.37,2.48C43.62,42.34,43.06,38.63,42.72,36.48Zm-2.67,4.61c-.44-.32-.23-1.09,0-1.45A6.39,6.39,0,0,1,41.37,38c0,.24,0,.48,0,.71a3.91,3.91,0,0,1-.12,2C41.09,41,40.41,41.34,40.05,41.08Z"/><path class="cls-1" d="M49.93,18.42a6.62,6.62,0,0,0-2.14-7.15,6,6,0,0,0-7.64-.37C39.51,3.15,31.4-1,24,.21c-7,1.16-13.44,8.3-11.76,15.44C5.92,12.59-2.25,19.51.58,26.74c1.66,4.24,6.87,6.16,11,6.71a109.94,109.94,0,0,0,13.55.82c-1,2.17-2,4.28-3.08,6.42a.76.76,0,0,0,.65,1.13c1,0,1.9,0,2.86,0-1.08,2-2.11,4.09-3,6.2a.75.75,0,0,0,1.18.91c3.66-3.46,7.74-6.33,11.24-10a.76.76,0,0,0-.53-1.28l-2.82,0c.65-1.09,1.31-2.18,1.93-3.28a.74.74,0,0,0,.07-.22c3.24,0,6.48,0,9.72-.13,3.91-.14,8.58.32,11.85-2.21C61.72,26.76,57.75,16.87,49.93,18.42ZM29.57,38.12a.76.76,0,0,0,.65,1.13c.78,0,1.55,0,2.33,0-2.29,2.2-4.76,4.16-7.16,6.21q1-2,2-3.93a.76.76,0,0,0-.65-1.13c-1,0-1.93,0-2.9,0,1-2,2-4,2.88-6.07H29.4l2.46,0C31.11,35.55,30.33,36.83,29.57,38.12Zm25.77-8.47c-2.87,3.14-7.21,2.75-11.08,2.9-4.95.19-9.9.13-14.86.22-3.23,0-6.45-.19-9.67-.35-3.39-.17-7,0-10.27-.87C5.27,30.44,1,27.68,1.82,22.78,2.19,20.6,2.93,18.65,5,17.51c2.67-1.49,5.85-1.64,8.23.57a.75.75,0,0,0,1.18-.91C10.59,9.55,18.57,2,25.77,1.52,32.33,1.1,39,5.22,38.69,12.38a.76.76,0,0,0,1.28.53c4.49-4,11.32,1.09,7.92,6.31a.76.76,0,0,0,.85,1.1c2.59-1,5.49-.75,7.38,1.54S57,27.79,55.34,29.65Z"/><path class="cls-1" d="M17.95,8.52a14,14,0,0,0-1.53,4.26c-.17.94,1.27,1.35,1.45.4a12.72,12.72,0,0,1,1.38-3.9C19.71,8.43,18.42,7.67,17.95,8.52Z"/><path class="cls-1" d="M20.69,9.89a.75.75,0,0,0-1,.27,18.61,18.61,0,0,0-.89,2.54.75.75,0,0,0,1.45.4A16,16,0,0,1,21,10.92.78.78,0,0,0,20.69,9.89Z"/></g></g></svg>